<svg version="1.1" xmlns="http://www.w3.org/2000/svg" xmlns:xlink="http://www.w3.org/1999/xlink" viewBox="-0.4e3 -0.4e3 0.8e3 0.8e3">
  <path d="M 0.10398558807373046875e3,-0.227347747802734375e3 C 0.13936968994140625e3,-0.248397857666015625e3 0.18452655029296875e3,-0.242752685546875e3 0.213639617919921875e3,-0.213639617919921875e3 C 0.242752685546875e3,-0.18452655029296875e3 0.248397857666015625e3,-0.1393697052001953125e3 0.227347747802734375e3,-0.103985595703125e3 L 0.227347747802734375e3,-0.1039855804443359375e3 C 0.22339337158203125e3,-0.11263120269775390625e3 0.21894903564453125e3,-0.12104421234130859375e3 0.2140364227294921875e3,-0.129183624267578125e3 L 0.2213118438720703125e3,-0.1364590301513671875e3 C 0.20003094482421875e3,-0.1709727935791015625e3 0.170972808837890625e3,-0.20003094482421875e3 0.13645904541015625e3,-0.2213118438720703125e3 L 0.1291836395263671875e3,-0.2140364227294921875e3 C 0.12104422760009765625e3,-0.21894903564453125e3 0.1126312103271484375e3,-0.22339337158203125e3 0.103985595703125e3,-0.227347747802734375e3 Z M 0.227347747802734375e3,0.1039855804443359375e3 C 0.248397857666015625e3,0.13936968994140625e3 0.242752685546875e3,0.18452655029296875e3 0.213639617919921875e3,0.213639617919921875e3 C 0.18452655029296875e3,0.242752685546875e3 0.13936968994140625e3,0.248397857666015625e3 0.1039855804443359375e3,0.227347747802734375e3 L 0.103985595703125e3,0.227347747802734375e3 C 0.1126312103271484375e3,0.22339337158203125e3 0.121044219970703125e3,0.2189490509033203125e3 0.129183624267578125e3,0.21403643798828125e3 L 0.136459014892578125e3,0.2213118438720703125e3 C 0.1709727783203125e3,0.20003094482421875e3 0.20003094482421875e3,0.1709727935791015625e3 0.2213118438720703125e3,0.1364590301513671875e3 L 0.2140364227294921875e3,0.129183624267578125e3 C 0.21894903564453125e3,0.12104421234130859375e3 0.22339337158203125e3,0.112631195068359375e3 0.227347747802734375e3,0.10398557281494140625e3 Z M -0.103985595703125e3,0.227347747802734375e3 C -0.13936968994140625e3,0.248397857666015625e3 -0.1845265350341796875e3,0.242752685546875e3 -0.2136396026611328125e3,0.213639617919921875e3 C -0.2427526702880859375e3,0.18452655029296875e3 -0.248397857666015625e3,0.1393697052001953125e3 -0.227347747802734375e3,0.1039856109619140625e3 L -0.2273477325439453125e3,0.10398561859130859375e3 C -0.223393341064453125e3,0.11263124847412109375e3 -0.2189490203857421875e3,0.1210442657470703125e3 -0.2140363922119140625e3,0.129183685302734375e3 L -0.2213118133544921875e3,0.1364590911865234375e3 C -0.200030914306640625e3,0.17097283935546875e3 -0.1709727630615234375e3,0.200030975341796875e3 -0.136459014892578125e3,0.221311859130859375e3 L -0.1291836090087890625e3,0.21403643798828125e3 C -0.1210442047119140625e3,0.2189490509033203125e3 -0.112631195068359375e3,0.22339337158203125e3 -0.1039855804443359375e3,0.227347747802734375e3 Z M -0.227347747802734375e3,-0.1039856109619140625e3 C -0.248397857666015625e3,-0.139369720458984375e3 -0.2427526702880859375e3,-0.1845265655517578125e3 -0.21363958740234375e3,-0.2136396331787109375e3 C -0.1845265045166015625e3,-0.242752685546875e3 -0.139369659423828125e3,-0.248397857666015625e3 -0.10398555755615234375e3,-0.2273477325439453125e3 L -0.1039855804443359375e3,-0.227347747802734375e3 C -0.1126312103271484375e3,-0.2233933563232421875e3 -0.1210442352294921875e3,-0.21894903564453125e3 -0.12918365478515625e3,-0.214036407470703125e3 L -0.1364590606689453125e3,-0.22131182861328125e3 C -0.1709727935791015625e3,-0.20003094482421875e3 -0.200030914306640625e3,-0.170972808837890625e3 -0.221311798095703125e3,-0.1364590911865234375e3 L -0.2140364532470703125e3,-0.12918359375e3 C -0.2189490509033203125e3,-0.1210442047119140625e3 -0.2233933563232421875e3,-0.1126312103271484375e3 -0.2273477325439453125e3,-0.10398561859130859375e3 Z " fill="#fcd4ee" fill-opacity="0.1e1" fill-rule="evenodd" stroke="none"/>
  <path d="M 0.11233072662353515625e3,-0.223342376708984375e3 C 0.143199188232421875e3,-0.2291856231689453125e3 0.1749602203369140625e3,-0.2193900604248046875e3 0.197175140380859375e3,-0.197175140380859375e3 C 0.2193900604248046875e3,-0.174960235595703125e3 0.2291856231689453125e3,-0.143199188232421875e3 0.223342376708984375e3,-0.11233072662353515625e3 L 0.2233423614501953125e3,-0.1123307342529296875e3 C 0.220457916259765625e3,-0.118065765380859375e3 0.2173536224365234375e3,-0.12368755340576171875e3 0.2140364227294921875e3,-0.129183624267578125e3 L 0.2213118438720703125e3,-0.1364590301513671875e3 C 0.20003094482421875e3,-0.1709727935791015625e3 0.170972808837890625e3,-0.20003094482421875e3 0.13645904541015625e3,-0.2213118438720703125e3 L 0.1291836395263671875e3,-0.2140364227294921875e3 C 0.12368756103515625e3,-0.2173536376953125e3 0.11806574249267578125e3,-0.2204579010009765625e3 0.1123307037353515625e3,-0.2233423614501953125e3 Z M 0.2233423614501953125e3,0.11233072662353515625e3 C 0.22918560791015625e3,0.1431991729736328125e3 0.2193900604248046875e3,0.1749602203369140625e3 0.197175140380859375e3,0.197175140380859375e3 C 0.1749602203369140625e3,0.2193900604248046875e3 0.143199188232421875e3,0.2291856231689453125e3 0.1123307342529296875e3,0.223342376708984375e3 L 0.11233069610595703125e3,0.223342376708984375e3 C 0.11806573486328125e3,0.220457916259765625e3 0.1236875457763671875e3,0.2173536376953125e3 0.129183624267578125e3,0.21403643798828125e3 L 0.136459014892578125e3,0.2213118438720703125e3 C 0.1709727783203125e3,0.20003094482421875e3 0.20003094482421875e3,0.1709727935791015625e3 0.2213118438720703125e3,0.1364590301513671875e3 L 0.2140364227294921875e3,0.129183624267578125e3 C 0.2173536224365234375e3,0.1236875457763671875e3 0.220457916259765625e3,0.11806573486328125e3 0.223342376708984375e3,0.11233069610595703125e3 Z M -0.11233072662353515625e3,0.223342376708984375e3 C -0.143199188232421875e3,0.2291856231689453125e3 -0.174960235595703125e3,0.219390045166015625e3 -0.1971751556396484375e3,0.197175140380859375e3 C -0.21939007568359375e3,0.174960205078125e3 -0.22918560791015625e3,0.1431991729736328125e3 -0.2233423614501953125e3,0.112330718994140625e3 L -0.2233423614501953125e3,0.11233071136474609375e3 C -0.2204579010009765625e3,0.118065765380859375e3 -0.217353607177734375e3,0.123687591552734375e3 -0.2140363922119140625e3,0.129183685302734375e3 L -0.2213118133544921875e3,0.1364590911865234375e3 C -0.200030914306640625e3,0.17097283935546875e3 -0.1709727630615234375e3,0.200030975341796875e3 -0.136459014892578125e3,0.221311859130859375e3 L -0.1291836090087890625e3,0.21403643798828125e3 C -0.123687530517578125e3,0.2173536376953125e3 -0.1180657196044921875e3,0.220457916259765625e3 -0.11233068084716796875e3,0.223342376708984375e3 Z M -0.2233423614501953125e3,-0.112330718994140625e3 C -0.22918560791015625e3,-0.1431991729736328125e3 -0.21939007568359375e3,-0.174960205078125e3 -0.1971751556396484375e3,-0.197175140380859375e3 C -0.174960235595703125e3,-0.219390045166015625e3 -0.1431992034912109375e3,-0.22918560791015625e3 -0.11233074951171875e3,-0.223342376708984375e3 L -0.112330780029296875e3,-0.2233423309326171875e3 C -0.1180657958984375e3,-0.2204578857421875e3 -0.123687591552734375e3,-0.217353607177734375e3 -0.12918365478515625e3,-0.214036407470703125e3 L -0.1364590606689453125e3,-0.22131182861328125e3 C -0.1709727935791015625e3,-0.20003094482421875e3 -0.200030914306640625e3,-0.170972808837890625e3 -0.221311798095703125e3,-0.1364590911865234375e3 L -0.2140364532470703125e3,-0.12918359375e3 C -0.2173536529541015625e3,-0.123687530517578125e3 -0.220457916259765625e3,-0.11806573486328125e3 -0.2233423614501953125e3,-0.112330718994140625e3 Z " fill="#f9c5e9" fill-opacity="0.1e1" fill-rule="evenodd" stroke="none"/>
  <path d="M 0,-0.135e3 C 0.7455843353271484375e2,-0.135e3 0.135e3,-0.7455843353271484375e2 0.135e3,0 C 0.135e3,0.7455843353271484375e2 0.7455843353271484375e2,0.135e3 0,0.135e3 C -0.7455843353271484375e2,0.135e3 -0.135e3,0.7455843353271484375e2 -0.135e3,0 C -0.135e3,-0.7455843353271484375e2 -0.7455843353271484375e2,-0.135e3 0,-0.135e3 Z " fill="#fcd4e1" fill-opacity="0.1e1" fill-rule="evenodd" stroke="none"/>
  <path d="M 0.1218903656005859375e3,-0.2067431640625e3 C 0.466793670654296875e2,-0.251085601806640625e3 -0.466793670654296875e2,-0.251085601806640625e3 -0.1218903656005859375e3,-0.2067431640625e3 L -0.50914363861083984375e2,-0.135767181396484375e3 C -0.1808763885498046875e2,-0.148077606201171875e3 0.1808763885498046875e2,-0.148077606201171875e3 0.50914363861083984375e2,-0.135767181396484375e3 Z M 0.2067431793212890625e3,0.121890350341796875e3 C 0.2510856170654296875e3,0.4667934417724609375e2 0.251085601806640625e3,-0.4667938995361328125e2 0.2067431488037109375e3,-0.121890380859375e3 L 0.135767181396484375e3,-0.50914356231689453125e2 C 0.148077606201171875e3,-0.180876312255859375e2 0.148077606201171875e3,0.18087646484375e2 0.135767181396484375e3,0.50914371490478515625e2 Z M -0.1218903961181640625e3,0.2067431488037109375e3 C -0.4667938232421875e2,0.2510856170654296875e3 0.4667938232421875e2,0.2510856170654296875e3 0.1218903961181640625e3,0.2067431488037109375e3 L 0.50914398193359375e2,0.1357671661376953125e3 C 0.18087657928466796875e2,0.148077606201171875e3 -0.18087650299072265625e2,0.148077606201171875e3 -0.5091439056396484375e2,0.1357671661376953125e3 Z M -0.206743194580078125e3,-0.12189031982421875e3 C -0.2510856170654296875e3,-0.4667931365966796875e2 -0.2510855865478515625e3,0.466794281005859375e2 -0.206743133544921875e3,0.12189041900634765625e3 L -0.1357671661376953125e3,0.50914409637451171875e2 C -0.148077606201171875e3,0.18087680816650390625e2 -0.148077606201171875e3,-0.18087615966796875e2 -0.135767181396484375e3,-0.50914348602294921875e2 Z " fill="#fc9b4c" fill-opacity="0.1e1" fill-rule="evenodd" stroke="none"/>
  <path d="M 0.6245449066162109375e2,-0.147307281494140625e3 C 0.2253786468505859375e2,-0.16423089599609375e3 -0.2253786468505859375e2,-0.16423089599609375e3 -0.6245449066162109375e2,-0.147307281494140625e3 L -0.50914363861083984375e2,-0.135767181396484375e3 C -0.1808763885498046875e2,-0.148077606201171875e3 0.1808763885498046875e2,-0.148077606201171875e3 0.50914363861083984375e2,-0.135767181396484375e3 Z M 0.147307281494140625e3,0.62454494476318359375e2 C 0.16423089599609375e3,0.22537868499755859375e2 0.16423089599609375e3,-0.22537872314453125e2 0.147307281494140625e3,-0.62454498291015625e2 L 0.135767181396484375e3,-0.50914356231689453125e2 C 0.148077606201171875e3,-0.180876312255859375e2 0.148077606201171875e3,0.18087646484375e2 0.135767181396484375e3,0.50914371490478515625e2 Z M -0.62454498291015625e2,0.147307281494140625e3 C -0.2253786468505859375e2,0.1642309112548828125e3 0.22537876129150390625e2,0.1642309112548828125e3 0.62454509735107421875e2,0.147307281494140625e3 L 0.50914398193359375e2,0.1357671661376953125e3 C 0.18087657928466796875e2,0.148077606201171875e3 -0.18087650299072265625e2,0.148077606201171875e3 -0.5091439056396484375e2,0.1357671661376953125e3 Z M -0.1473072509765625e3,-0.62454559326171875e2 C -0.16423089599609375e3,-0.2253792572021484375e2 -0.164230926513671875e3,0.22537841796875e2 -0.1473072967529296875e3,0.62454486846923828125e2 L -0.1357671661376953125e3,0.50914409637451171875e2 C -0.148077606201171875e3,0.18087680816650390625e2 -0.148077606201171875e3,-0.18087615966796875e2 -0.135767181396484375e3,-0.50914348602294921875e2 Z M -0.109391994774341583251953125e0,-0.239999969482421875e3 C 0.42798923492431640625e2,-0.24001953125e3 0.849278564453125e2,-0.2285352935791015625e3 0.1218903656005859375e3,-0.2067431640625e3 L 0.1016727447509765625e3,-0.1865255584716796875e3 C 0.717795867919921875e2,-0.211153900146484375e3 0.371315460205078125e2,-0.2293572998046875e3 -0.1094207763671875e0,-0.239999969482421875e3 Z M 0.2067431488037109375e3,-0.121890380859375e3 C 0.251085601806640625e3,-0.4667938995361328125e2 0.2510856170654296875e3,0.4667934417724609375e2 0.2067431793212890625e3,0.121890350341796875e3 L 0.193433197021484375e3,0.108580413818359375e3 C 0.212470611572265625e3,0.420594940185546875e2 0.20637615966796875e3,-0.291398448944091796875e2 0.176310516357421875e3,-0.914576873779296875e2 Z " fill="#f78537" fill-opacity="0.1e1" fill-rule="evenodd" stroke="none"/>
  <path d="M 0.2085604095458984375e3,-0.1378497467041015625e3 C 0.1899928741455078125e3,-0.16594158935546875e3 0.16594158935546875e3,-0.1899928741455078125e3 0.1378497467041015625e3,-0.2085604095458984375e3 L 0.6088655853271484375e2,-0.1315972137451171875e3 C 0.920958709716796875e2,-0.1171574859619140625e3 0.1171574859619140625e3,-0.9209588623046875e2 0.1315972137451171875e3,-0.60886566162109375e2 Z M 0.137849761962890625e3,0.2085604095458984375e3 C 0.16594158935546875e3,0.1899928741455078125e3 0.1899928741455078125e3,0.16594158935546875e3 0.2085604095458984375e3,0.137849761962890625e3 L 0.1315972137451171875e3,0.608865509033203125e2 C 0.1171574859619140625e3,0.9209587860107421875e2 0.920958709716796875e2,0.1171574859619140625e3 0.60886547088623046875e2,0.1315972137451171875e3 Z M -0.2085604400634765625e3,0.1378497161865234375e3 C -0.1899929046630859375e3,0.1659415740966796875e3 -0.16594158935546875e3,0.189992889404296875e3 -0.1378497467041015625e3,0.2085604248046875e3 L -0.60886566162109375e2,0.1315972137451171875e3 C -0.920958709716796875e2,0.1171574859619140625e3 -0.117157470703125e3,0.9209589385986328125e2 -0.131597198486328125e3,0.6088658905029296875e2 Z M -0.13784979248046875e3,-0.208560394287109375e3 C -0.165941619873046875e3,-0.18999285888671875e3 -0.189992889404296875e3,-0.165941558837890625e3 -0.2085604248046875e3,-0.1378497314453125e3 L -0.13159722900390625e3,-0.6088652801513671875e2 C -0.117157501220703125e3,-0.92095855712890625e2 -0.9209589385986328125e2,-0.11715747833251953125e3 -0.60886566162109375e2,-0.1315972137451171875e3 Z " fill="#ffffff" fill-opacity="0.1e1" fill-rule="evenodd" stroke="none"/>
  <path d="M -0.103985595703125e3,-0.227347747802734375e3 C -0.379515838623046875e2,-0.257550750732421875e3 0.379515838623046875e2,-0.257550750732421875e3 0.103985595703125e3,-0.227347747802734375e3 L 0.9290294647216796875e2,-0.2320970458984375e3 C 0.1326456756591796875e3,-0.2597374267578125e3 0.1864800262451171875e3,-0.2549413299560546875e3 0.2207106781005859375e3,-0.2207106781005859375e3 C 0.2549413299560546875e3,-0.1864800262451171875e3 0.2597374267578125e3,-0.132645660400390625e3 0.2320970458984375e3,-0.929029388427734375e2 L 0.227347747802734375e3,-0.1039855804443359375e3 C 0.257550750732421875e3,-0.3795157623291015625e2 0.257550750732421875e3,0.37951568603515625e2 0.227347747802734375e3,0.10398557281494140625e3 L 0.2320970458984375e3,0.9290294647216796875e2 C 0.2597374267578125e3,0.1326456756591796875e3 0.2549413299560546875e3,0.1864800262451171875e3 0.2207106781005859375e3,0.2207106781005859375e3 C 0.1864800262451171875e3,0.2549413299560546875e3 0.1326456756591796875e3,0.2597374267578125e3 0.9290294647216796875e2,0.2320970458984375e3 L 0.103985595703125e3,0.227347747802734375e3 C 0.379515838623046875e2,0.257550750732421875e3 -0.37951568603515625e2,0.257550750732421875e3 -0.1039855804443359375e3,0.227347747802734375e3 L -0.929029388427734375e2,0.2320970458984375e3 C -0.132645660400390625e3,0.2597374267578125e3 -0.186480010986328125e3,0.2549413299560546875e3 -0.220710662841796875e3,0.220710693359375e3 C -0.254941314697265625e3,0.18648004150390625e3 -0.2597374267578125e3,0.13264569091796875e3 -0.2320970611572265625e3,0.929029541015625e2 L -0.2273477325439453125e3,0.10398561859130859375e3 C -0.257550750732421875e3,0.3795159149169921875e2 -0.257550750732421875e3,-0.3795159149169921875e2 -0.2273477325439453125e3,-0.10398561859130859375e3 L -0.2320970611572265625e3,-0.929029541015625e2 C -0.2597374267578125e3,-0.13264569091796875e3 -0.254941314697265625e3,-0.1864800567626953125e3 -0.220710662841796875e3,-0.220710693359375e3 C -0.18647998046875e3,-0.25494134521484375e3 -0.1326456756591796875e3,-0.2597374267578125e3 -0.929029388427734375e2,-0.2320970458984375e3 Z M 0,-0.135e3 C 0.7455843353271484375e2,-0.135e3 0.135e3,-0.7455843353271484375e2 0.135e3,0 C 0.135e3,0.7455843353271484375e2 0.7455843353271484375e2,0.135e3 0,0.135e3 C -0.7455843353271484375e2,0.135e3 -0.135e3,0.7455843353271484375e2 -0.135e3,0 C -0.135e3,-0.7455843353271484375e2 -0.7455843353271484375e2,-0.135e3 0,-0.135e3 Z M 0.10398558807373046875e3,-0.227347747802734375e3 C 0.13936968994140625e3,-0.248397857666015625e3 0.18452655029296875e3,-0.242752685546875e3 0.213639617919921875e3,-0.213639617919921875e3 C 0.242752685546875e3,-0.18452655029296875e3 0.248397857666015625e3,-0.1393697052001953125e3 0.227347747802734375e3,-0.103985595703125e3 L 0.227347747802734375e3,-0.1039855804443359375e3 C 0.22339337158203125e3,-0.11263120269775390625e3 0.21894903564453125e3,-0.12104421234130859375e3 0.2140364227294921875e3,-0.129183624267578125e3 L 0.2213118438720703125e3,-0.1364590301513671875e3 C 0.20003094482421875e3,-0.1709727935791015625e3 0.170972808837890625e3,-0.20003094482421875e3 0.13645904541015625e3,-0.2213118438720703125e3 L 0.1291836395263671875e3,-0.2140364227294921875e3 C 0.12104422760009765625e3,-0.21894903564453125e3 0.1126312103271484375e3,-0.22339337158203125e3 0.103985595703125e3,-0.227347747802734375e3 Z M 0.2085604095458984375e3,-0.1378497467041015625e3 C 0.1899928741455078125e3,-0.16594158935546875e3 0.16594158935546875e3,-0.1899928741455078125e3 0.1378497467041015625e3,-0.2085604095458984375e3 L 0.6088655853271484375e2,-0.1315972137451171875e3 C 0.920958709716796875e2,-0.1171574859619140625e3 0.1171574859619140625e3,-0.9209588623046875e2 0.1315972137451171875e3,-0.60886566162109375e2 Z M 0.1218903656005859375e3,-0.2067431640625e3 C 0.466793670654296875e2,-0.251085601806640625e3 -0.466793670654296875e2,-0.251085601806640625e3 -0.1218903656005859375e3,-0.2067431640625e3 L -0.50914363861083984375e2,-0.135767181396484375e3 C -0.1808763885498046875e2,-0.148077606201171875e3 0.1808763885498046875e2,-0.148077606201171875e3 0.50914363861083984375e2,-0.135767181396484375e3 Z M 0.227347747802734375e3,0.1039855804443359375e3 C 0.248397857666015625e3,0.13936968994140625e3 0.242752685546875e3,0.18452655029296875e3 0.213639617919921875e3,0.213639617919921875e3 C 0.18452655029296875e3,0.242752685546875e3 0.13936968994140625e3,0.248397857666015625e3 0.1039855804443359375e3,0.227347747802734375e3 L 0.103985595703125e3,0.227347747802734375e3 C 0.1126312103271484375e3,0.22339337158203125e3 0.121044219970703125e3,0.2189490509033203125e3 0.129183624267578125e3,0.21403643798828125e3 L 0.136459014892578125e3,0.2213118438720703125e3 C 0.1709727783203125e3,0.20003094482421875e3 0.20003094482421875e3,0.1709727935791015625e3 0.2213118438720703125e3,0.1364590301513671875e3 L 0.2140364227294921875e3,0.129183624267578125e3 C 0.21894903564453125e3,0.12104421234130859375e3 0.22339337158203125e3,0.112631195068359375e3 0.227347747802734375e3,0.10398557281494140625e3 Z M 0.137849761962890625e3,0.2085604095458984375e3 C 0.16594158935546875e3,0.1899928741455078125e3 0.1899928741455078125e3,0.16594158935546875e3 0.2085604095458984375e3,0.137849761962890625e3 L 0.1315972137451171875e3,0.608865509033203125e2 C 0.1171574859619140625e3,0.9209587860107421875e2 0.920958709716796875e2,0.1171574859619140625e3 0.60886547088623046875e2,0.1315972137451171875e3 Z M 0.2067431793212890625e3,0.121890350341796875e3 C 0.2510856170654296875e3,0.4667934417724609375e2 0.251085601806640625e3,-0.4667938995361328125e2 0.2067431488037109375e3,-0.121890380859375e3 L 0.135767181396484375e3,-0.50914356231689453125e2 C 0.148077606201171875e3,-0.180876312255859375e2 0.148077606201171875e3,0.18087646484375e2 0.135767181396484375e3,0.50914371490478515625e2 Z M -0.103985595703125e3,0.227347747802734375e3 C -0.13936968994140625e3,0.248397857666015625e3 -0.1845265350341796875e3,0.242752685546875e3 -0.2136396026611328125e3,0.213639617919921875e3 C -0.2427526702880859375e3,0.18452655029296875e3 -0.248397857666015625e3,0.1393697052001953125e3 -0.227347747802734375e3,0.1039856109619140625e3 L -0.2273477325439453125e3,0.10398561859130859375e3 C -0.223393341064453125e3,0.11263124847412109375e3 -0.2189490203857421875e3,0.1210442657470703125e3 -0.2140363922119140625e3,0.129183685302734375e3 L -0.2213118133544921875e3,0.1364590911865234375e3 C -0.200030914306640625e3,0.17097283935546875e3 -0.1709727630615234375e3,0.200030975341796875e3 -0.136459014892578125e3,0.221311859130859375e3 L -0.1291836090087890625e3,0.21403643798828125e3 C -0.1210442047119140625e3,0.2189490509033203125e3 -0.112631195068359375e3,0.22339337158203125e3 -0.1039855804443359375e3,0.227347747802734375e3 Z M -0.2085604400634765625e3,0.1378497161865234375e3 C -0.1899929046630859375e3,0.1659415740966796875e3 -0.16594158935546875e3,0.189992889404296875e3 -0.1378497467041015625e3,0.2085604248046875e3 L -0.60886566162109375e2,0.1315972137451171875e3 C -0.920958709716796875e2,0.1171574859619140625e3 -0.117157470703125e3,0.9209589385986328125e2 -0.131597198486328125e3,0.6088658905029296875e2 Z M -0.1218903961181640625e3,0.2067431488037109375e3 C -0.4667938232421875e2,0.2510856170654296875e3 0.4667938232421875e2,0.2510856170654296875e3 0.1218903961181640625e3,0.2067431488037109375e3 L 0.50914398193359375e2,0.1357671661376953125e3 C 0.18087657928466796875e2,0.148077606201171875e3 -0.18087650299072265625e2,0.148077606201171875e3 -0.5091439056396484375e2,0.1357671661376953125e3 Z M -0.227347747802734375e3,-0.1039856109619140625e3 C -0.248397857666015625e3,-0.139369720458984375e3 -0.2427526702880859375e3,-0.1845265655517578125e3 -0.21363958740234375e3,-0.2136396331787109375e3 C -0.1845265045166015625e3,-0.242752685546875e3 -0.139369659423828125e3,-0.248397857666015625e3 -0.10398555755615234375e3,-0.2273477325439453125e3 L -0.1039855804443359375e3,-0.227347747802734375e3 C -0.1126312103271484375e3,-0.2233933563232421875e3 -0.1210442352294921875e3,-0.21894903564453125e3 -0.12918365478515625e3,-0.214036407470703125e3 L -0.1364590606689453125e3,-0.22131182861328125e3 C -0.1709727935791015625e3,-0.20003094482421875e3 -0.200030914306640625e3,-0.170972808837890625e3 -0.221311798095703125e3,-0.1364590911865234375e3 L -0.2140364532470703125e3,-0.12918359375e3 C -0.2189490509033203125e3,-0.1210442047119140625e3 -0.2233933563232421875e3,-0.1126312103271484375e3 -0.2273477325439453125e3,-0.10398561859130859375e3 Z M -0.13784979248046875e3,-0.208560394287109375e3 C -0.165941619873046875e3,-0.18999285888671875e3 -0.189992889404296875e3,-0.165941558837890625e3 -0.2085604248046875e3,-0.1378497314453125e3 L -0.13159722900390625e3,-0.6088652801513671875e2 C -0.117157501220703125e3,-0.92095855712890625e2 -0.9209589385986328125e2,-0.11715747833251953125e3 -0.60886566162109375e2,-0.1315972137451171875e3 Z M -0.206743194580078125e3,-0.12189031982421875e3 C -0.2510856170654296875e3,-0.4667931365966796875e2 -0.2510855865478515625e3,0.466794281005859375e2 -0.206743133544921875e3,0.12189041900634765625e3 L -0.1357671661376953125e3,0.50914409637451171875e2 C -0.148077606201171875e3,0.18087680816650390625e2 -0.148077606201171875e3,-0.18087615966796875e2 -0.135767181396484375e3,-0.50914348602294921875e2 Z " fill="#6d4120" fill-opacity="0.1e1" fill-rule="evenodd" stroke="none"/>
</svg>