<svg version="1.1" xmlns="http://www.w3.org/2000/svg" xmlns:xlink="http://www.w3.org/1999/xlink" viewBox="0 0 0.8e3 0.8e3">
  <path d="M 0.503985595703125e3,0.1726522216796875e3 C 0.53936968994140625e3,0.1516021728515625e3 0.58452655029296875e3,0.157247314453125e3 0.61363958740234375e3,0.18636041259765625e3 C 0.642752685546875e3,0.21547344970703125e3 0.6483978271484375e3,0.26063031005859375e3 0.6273477783203125e3,0.296014404296875e3 L 0.6273477783203125e3,0.296014404296875e3 C 0.62339337158203125e3,0.2873687744140625e3 0.61894903564453125e3,0.278955810546875e3 0.61403643798828125e3,0.27081640625e3 L 0.62131182861328125e3,0.26354095458984375e3 C 0.60003094482421875e3,0.2290272216796875e3 0.5709727783203125e3,0.19996905517578125e3 0.53645904541015625e3,0.17868817138671875e3 L 0.52918365478515625e3,0.18596356201171875e3 C 0.52104425048828125e3,0.18105096435546875e3 0.5126312255859375e3,0.17660662841796875e3 0.503985595703125e3,0.1726522216796875e3 Z M 0.6273477783203125e3,0.503985595703125e3 C 0.6483978271484375e3,0.53936968994140625e3 0.642752685546875e3,0.58452655029296875e3 0.61363958740234375e3,0.6136396484375e3 C 0.58452655029296875e3,0.642752685546875e3 0.53936968994140625e3,0.6483978271484375e3 0.503985595703125e3,0.6273477783203125e3 L 0.503985595703125e3,0.6273477783203125e3 C 0.5126312255859375e3,0.62339337158203125e3 0.521044189453125e3,0.61894903564453125e3 0.52918359375e3,0.61403643798828125e3 L 0.536458984375e3,0.62131182861328125e3 C 0.5709727783203125e3,0.60003094482421875e3 0.60003094482421875e3,0.5709727783203125e3 0.62131182861328125e3,0.53645904541015625e3 L 0.61403643798828125e3,0.52918359375e3 C 0.61894903564453125e3,0.521044189453125e3 0.62339337158203125e3,0.5126312255859375e3 0.6273477783203125e3,0.503985565185546875e3 Z M 0.296014404296875e3,0.6273477783203125e3 C 0.26063031005859375e3,0.6483978271484375e3 0.2154734649658203125e3,0.642752685546875e3 0.1863603973388671875e3,0.6136396484375e3 C 0.1572473297119140625e3,0.58452655029296875e3 0.151602142333984375e3,0.5393697509765625e3 0.172652252197265625e3,0.503985595703125e3 L 0.1726522674560546875e3,0.503985626220703125e3 C 0.176606658935546875e3,0.5126312255859375e3 0.1810509796142578125e3,0.52104425048828125e3 0.1859636077880859375e3,0.5291837158203125e3 L 0.1786881866455078125e3,0.5364591064453125e3 C 0.199969085693359375e3,0.57097283935546875e3 0.2290272369384765625e3,0.600031005859375e3 0.263540985107421875e3,0.6213118896484375e3 L 0.27081640625e3,0.61403643798828125e3 C 0.278955810546875e3,0.61894903564453125e3 0.287368804931640625e3,0.62339337158203125e3 0.296014404296875e3,0.6273477783203125e3 Z M 0.172652252197265625e3,0.296014404296875e3 C 0.151602142333984375e3,0.26063031005859375e3 0.1572473297119140625e3,0.21547344970703125e3 0.18636041259765625e3,0.1863603515625e3 C 0.2154734954833984375e3,0.157247314453125e3 0.260630340576171875e3,0.1516021728515625e3 0.296014434814453125e3,0.17265228271484375e3 L 0.296014404296875e3,0.1726522216796875e3 C 0.2873687744140625e3,0.17660662841796875e3 0.27895574951171875e3,0.18105096435546875e3 0.27081634521484375e3,0.185963623046875e3 L 0.26354095458984375e3,0.17868817138671875e3 C 0.2290272064208984375e3,0.19996905517578125e3 0.199969085693359375e3,0.2290272216796875e3 0.178688201904296875e3,0.2635408935546875e3 L 0.1859635467529296875e3,0.27081640625e3 C 0.1810509490966796875e3,0.278955810546875e3 0.1766066436767578125e3,0.2873687744140625e3 0.1726522674560546875e3,0.296014373779296875e3 Z " fill="#fcd4ee" fill-opacity="0.1e1" fill-rule="evenodd" stroke="none"/>
  <path d="M 0.51233074951171875e3,0.17665765380859375e3 C 0.54319915771484375e3,0.17081439208984375e3 0.574960205078125e3,0.18060992431640625e3 0.5971751708984375e3,0.2028248291015625e3 C 0.61939007568359375e3,0.225039794921875e3 0.62918560791015625e3,0.25680084228515625e3 0.62334234619140625e3,0.28766925048828125e3 L 0.62334234619140625e3,0.28766925048828125e3 C 0.6204578857421875e3,0.2819342041015625e3 0.6173536376953125e3,0.27631243896484375e3 0.61403643798828125e3,0.27081640625e3 L 0.62131182861328125e3,0.26354095458984375e3 C 0.60003094482421875e3,0.2290272216796875e3 0.5709727783203125e3,0.19996905517578125e3 0.53645904541015625e3,0.17868817138671875e3 L 0.52918365478515625e3,0.18596356201171875e3 C 0.52368756103515625e3,0.1826463623046875e3 0.51806573486328125e3,0.1795421142578125e3 0.5123306884765625e3,0.17665765380859375e3 Z M 0.62334234619140625e3,0.5123306884765625e3 C 0.62918560791015625e3,0.54319921875e3 0.61939007568359375e3,0.574960205078125e3 0.5971751708984375e3,0.5971751708984375e3 C 0.574960205078125e3,0.61939007568359375e3 0.54319921875e3,0.62918560791015625e3 0.51233074951171875e3,0.6233424072265625e3 L 0.5123306884765625e3,0.6233424072265625e3 C 0.51806573486328125e3,0.6204578857421875e3 0.52368756103515625e3,0.6173536376953125e3 0.52918359375e3,0.61403643798828125e3 L 0.536458984375e3,0.62131182861328125e3 C 0.5709727783203125e3,0.60003094482421875e3 0.60003094482421875e3,0.5709727783203125e3 0.62131182861328125e3,0.53645904541015625e3 L 0.61403643798828125e3,0.52918359375e3 C 0.6173536376953125e3,0.52368756103515625e3 0.6204578857421875e3,0.51806573486328125e3 0.6233424072265625e3,0.5123306884765625e3 Z M 0.287669281005859375e3,0.6233424072265625e3 C 0.256800811767578125e3,0.62918560791015625e3 0.225039764404296875e3,0.6193900146484375e3 0.2028248443603515625e3,0.5971751708984375e3 C 0.18060992431640625e3,0.574960205078125e3 0.17081439208984375e3,0.54319921875e3 0.1766576385498046875e3,0.5123306884765625e3 L 0.1766576385498046875e3,0.5123306884765625e3 C 0.1795420989990234375e3,0.5180657958984375e3 0.182646392822265625e3,0.5236876220703125e3 0.1859636077880859375e3,0.5291837158203125e3 L 0.1786881866455078125e3,0.5364591064453125e3 C 0.199969085693359375e3,0.57097283935546875e3 0.2290272369384765625e3,0.600031005859375e3 0.263540985107421875e3,0.6213118896484375e3 L 0.27081640625e3,0.61403643798828125e3 C 0.276312469482421875e3,0.6173536376953125e3 0.28193426513671875e3,0.6204578857421875e3 0.2876693115234375e3,0.6233424072265625e3 Z M 0.1766576385498046875e3,0.28766925048828125e3 C 0.17081439208984375e3,0.25680084228515625e3 0.18060992431640625e3,0.225039794921875e3 0.2028248443603515625e3,0.20282489013671875e3 C 0.225039764404296875e3,0.18060992431640625e3 0.256800811767578125e3,0.17081439208984375e3 0.28766925048828125e3,0.17665765380859375e3 L 0.287669219970703125e3,0.17665765380859375e3 C 0.2819342041015625e3,0.1795421142578125e3 0.276312408447265625e3,0.1826463623046875e3 0.27081634521484375e3,0.185963623046875e3 L 0.26354095458984375e3,0.17868817138671875e3 C 0.2290272064208984375e3,0.19996905517578125e3 0.199969085693359375e3,0.2290272216796875e3 0.178688201904296875e3,0.2635408935546875e3 L 0.1859635467529296875e3,0.27081640625e3 C 0.1826463470458984375e3,0.2763125e3 0.179542083740234375e3,0.28193426513671875e3 0.1766576385498046875e3,0.2876693115234375e3 Z " fill="#f9c5e9" fill-opacity="0.1e1" fill-rule="evenodd" stroke="none"/>
  <path d="M 0.4e3,0.265e3 C 0.474558441162109375e3,0.265e3 0.535e3,0.325441558837890625e3 0.535e3,0.4e3 C 0.535e3,0.474558441162109375e3 0.474558441162109375e3,0.535e3 0.4e3,0.535e3 C 0.325441558837890625e3,0.535e3 0.265e3,0.474558441162109375e3 0.265e3,0.4e3 C 0.265e3,0.325441558837890625e3 0.325441558837890625e3,0.265e3 0.4e3,0.265e3 Z " fill="#fcd4e1" fill-opacity="0.1e1" fill-rule="evenodd" stroke="none"/>
  <path d="M 0.521890380859375e3,0.1932568359375e3 C 0.44667938232421875e3,0.1489144287109375e3 0.35332061767578125e3,0.1489144287109375e3 0.278109619140625e3,0.1932568359375e3 L 0.34908563232421875e3,0.2642327880859375e3 C 0.381912353515625e3,0.25192236328125e3 0.418087646484375e3,0.25192236328125e3 0.45091436767578125e3,0.2642327880859375e3 Z M 0.6067431640625e3,0.521890380859375e3 C 0.65108563232421875e3,0.446679351806640625e3 0.6510855712890625e3,0.35332061767578125e3 0.6067431640625e3,0.278109619140625e3 L 0.5357672119140625e3,0.34908563232421875e3 C 0.54807763671875e3,0.381912353515625e3 0.54807763671875e3,0.418087646484375e3 0.5357672119140625e3,0.45091436767578125e3 Z M 0.278109619140625e3,0.6067431640625e3 C 0.35332061767578125e3,0.65108563232421875e3 0.44667938232421875e3,0.65108563232421875e3 0.521890380859375e3,0.6067431640625e3 L 0.450914398193359375e3,0.53576715087890625e3 C 0.418087646484375e3,0.54807763671875e3 0.381912353515625e3,0.54807763671875e3 0.349085601806640625e3,0.53576715087890625e3 Z M 0.193256805419921875e3,0.27810968017578125e3 C 0.1489143829345703125e3,0.3533206787109375e3 0.1489144134521484375e3,0.446679443359375e3 0.193256866455078125e3,0.521890380859375e3 L 0.26423284912109375e3,0.450914398193359375e3 C 0.251922393798828125e3,0.418087677001953125e3 0.251922393798828125e3,0.381912384033203125e3 0.264232818603515625e3,0.349085662841796875e3 Z " fill="#fc9b4c" fill-opacity="0.1e1" fill-rule="evenodd" stroke="none"/>
  <path d="M 0.462454498291015625e3,0.2526927490234375e3 C 0.422537872314453125e3,0.23576910400390625e3 0.377462127685546875e3,0.23576910400390625e3 0.337545501708984375e3,0.2526927490234375e3 L 0.34908563232421875e3,0.2642327880859375e3 C 0.381912353515625e3,0.25192236328125e3 0.418087646484375e3,0.25192236328125e3 0.45091436767578125e3,0.2642327880859375e3 Z M 0.5473072509765625e3,0.462454498291015625e3 C 0.56423089599609375e3,0.422537872314453125e3 0.56423089599609375e3,0.377462127685546875e3 0.5473072509765625e3,0.337545501708984375e3 L 0.5357672119140625e3,0.34908563232421875e3 C 0.54807763671875e3,0.381912353515625e3 0.54807763671875e3,0.418087646484375e3 0.5357672119140625e3,0.45091436767578125e3 Z M 0.337545501708984375e3,0.5473072509765625e3 C 0.377462127685546875e3,0.56423089599609375e3 0.422537872314453125e3,0.56423089599609375e3 0.462454498291015625e3,0.5473072509765625e3 L 0.450914398193359375e3,0.53576715087890625e3 C 0.418087646484375e3,0.54807763671875e3 0.381912353515625e3,0.54807763671875e3 0.349085601806640625e3,0.53576715087890625e3 Z M 0.2526927490234375e3,0.337545440673828125e3 C 0.23576910400390625e3,0.377462066650390625e3 0.235769073486328125e3,0.422537841796875e3 0.2526927032470703125e3,0.462454498291015625e3 L 0.26423284912109375e3,0.450914398193359375e3 C 0.251922393798828125e3,0.418087677001953125e3 0.251922393798828125e3,0.381912384033203125e3 0.264232818603515625e3,0.349085662841796875e3 Z M 0.399890594482421875e3,0.16e3 C 0.442798919677734375e3,0.15998046875e3 0.4849278564453125e3,0.1714647216796875e3 0.521890380859375e3,0.1932568359375e3 L 0.5016727294921875e3,0.21347442626953125e3 C 0.47177960205078125e3,0.1888460693359375e3 0.43713153076171875e3,0.1706427001953125e3 0.39989056396484375e3,0.16e3 Z M 0.6067431640625e3,0.278109619140625e3 C 0.6510855712890625e3,0.35332061767578125e3 0.65108563232421875e3,0.446679351806640625e3 0.6067431640625e3,0.521890380859375e3 L 0.5934332275390625e3,0.508580413818359375e3 C 0.6124705810546875e3,0.442059478759765625e3 0.60637615966796875e3,0.370860137939453125e3 0.576310546875e3,0.30854229736328125e3 Z " fill="#f78537" fill-opacity="0.1e1" fill-rule="evenodd" stroke="none"/>
  <path d="M 0.6085604248046875e3,0.2621502685546875e3 C 0.58999285888671875e3,0.23405841064453125e3 0.56594158935546875e3,0.21000714111328125e3 0.5378497314453125e3,0.1914395751953125e3 L 0.460886566162109375e3,0.26840277099609375e3 C 0.49209588623046875e3,0.282842529296875e3 0.517157470703125e3,0.30790411376953125e3 0.53159722900390625e3,0.339113433837890625e3 Z M 0.5378497314453125e3,0.6085604248046875e3 C 0.56594158935546875e3,0.58999285888671875e3 0.58999285888671875e3,0.56594158935546875e3 0.6085604248046875e3,0.5378497314453125e3 L 0.53159722900390625e3,0.46088653564453125e3 C 0.517157470703125e3,0.49209588623046875e3 0.49209588623046875e3,0.517157470703125e3 0.46088653564453125e3,0.53159722900390625e3 Z M 0.1914395599365234375e3,0.5378497314453125e3 C 0.2100070953369140625e3,0.56594158935546875e3 0.23405841064453125e3,0.589992919921875e3 0.2621502685546875e3,0.6085604248046875e3 L 0.339113433837890625e3,0.53159722900390625e3 C 0.30790411376953125e3,0.517157470703125e3 0.282842529296875e3,0.49209588623046875e3 0.268402801513671875e3,0.4608865966796875e3 Z M 0.26215020751953125e3,0.1914395751953125e3 C 0.234058380126953125e3,0.21000714111328125e3 0.210007110595703125e3,0.2340584716796875e3 0.1914395751953125e3,0.2621502685546875e3 L 0.26840277099609375e3,0.33911346435546875e3 C 0.282842498779296875e3,0.307904144287109375e3 0.30790411376953125e3,0.282842529296875e3 0.339113433837890625e3,0.26840277099609375e3 Z " fill="#ffffff" fill-opacity="0.1e1" fill-rule="evenodd" stroke="none"/>
  <path d="M 0.296014404296875e3,0.1726522216796875e3 C 0.36204840087890625e3,0.14244921875e3 0.43795159912109375e3,0.14244921875e3 0.503985595703125e3,0.1726522216796875e3 L 0.4929029541015625e3,0.1679029541015625e3 C 0.53264569091796875e3,0.1402625732421875e3 0.58648004150390625e3,0.14505865478515625e3 0.620710693359375e3,0.179289306640625e3 C 0.65494134521484375e3,0.21351995849609375e3 0.6597374267578125e3,0.26735430908203125e3 0.6320970458984375e3,0.3070970458984375e3 L 0.6273477783203125e3,0.296014404296875e3 C 0.65755078125e3,0.362048431396484375e3 0.65755078125e3,0.437951568603515625e3 0.6273477783203125e3,0.503985565185546875e3 L 0.6320970458984375e3,0.4929029541015625e3 C 0.6597374267578125e3,0.53264569091796875e3 0.65494134521484375e3,0.58648004150390625e3 0.620710693359375e3,0.620710693359375e3 C 0.58648004150390625e3,0.65494134521484375e3 0.53264569091796875e3,0.6597374267578125e3 0.4929029541015625e3,0.6320970458984375e3 L 0.503985595703125e3,0.6273477783203125e3 C 0.43795159912109375e3,0.65755078125e3 0.362048431396484375e3,0.65755078125e3 0.296014404296875e3,0.6273477783203125e3 L 0.3070970458984375e3,0.6320970458984375e3 C 0.267354339599609375e3,0.6597374267578125e3 0.213519989013671875e3,0.65494134521484375e3 0.179289337158203125e3,0.620710693359375e3 C 0.145058685302734375e3,0.58648004150390625e3 0.1402625732421875e3,0.53264569091796875e3 0.1679029388427734375e3,0.4929029541015625e3 L 0.1726522674560546875e3,0.503985626220703125e3 C 0.142449249267578125e3,0.43795159912109375e3 0.142449249267578125e3,0.36204840087890625e3 0.1726522674560546875e3,0.296014373779296875e3 L 0.1679029388427734375e3,0.3070970458984375e3 C 0.1402625732421875e3,0.26735430908203125e3 0.145058685302734375e3,0.21351995849609375e3 0.179289337158203125e3,0.179289306640625e3 C 0.21352001953125e3,0.14505865478515625e3 0.267354339599609375e3,0.1402625732421875e3 0.3070970458984375e3,0.1679029541015625e3 Z M 0.4e3,0.265e3 C 0.474558441162109375e3,0.265e3 0.535e3,0.325441558837890625e3 0.535e3,0.4e3 C 0.535e3,0.474558441162109375e3 0.474558441162109375e3,0.535e3 0.4e3,0.535e3 C 0.325441558837890625e3,0.535e3 0.265e3,0.474558441162109375e3 0.265e3,0.4e3 C 0.265e3,0.325441558837890625e3 0.325441558837890625e3,0.265e3 0.4e3,0.265e3 Z M 0.503985595703125e3,0.1726522216796875e3 C 0.53936968994140625e3,0.1516021728515625e3 0.58452655029296875e3,0.157247314453125e3 0.61363958740234375e3,0.18636041259765625e3 C 0.642752685546875e3,0.21547344970703125e3 0.6483978271484375e3,0.26063031005859375e3 0.6273477783203125e3,0.296014404296875e3 L 0.6273477783203125e3,0.296014404296875e3 C 0.62339337158203125e3,0.2873687744140625e3 0.61894903564453125e3,0.278955810546875e3 0.61403643798828125e3,0.27081640625e3 L 0.62131182861328125e3,0.26354095458984375e3 C 0.60003094482421875e3,0.2290272216796875e3 0.5709727783203125e3,0.19996905517578125e3 0.53645904541015625e3,0.17868817138671875e3 L 0.52918365478515625e3,0.18596356201171875e3 C 0.52104425048828125e3,0.18105096435546875e3 0.5126312255859375e3,0.17660662841796875e3 0.503985595703125e3,0.1726522216796875e3 Z M 0.6085604248046875e3,0.2621502685546875e3 C 0.58999285888671875e3,0.23405841064453125e3 0.56594158935546875e3,0.21000714111328125e3 0.5378497314453125e3,0.1914395751953125e3 L 0.460886566162109375e3,0.26840277099609375e3 C 0.49209588623046875e3,0.282842529296875e3 0.517157470703125e3,0.30790411376953125e3 0.53159722900390625e3,0.339113433837890625e3 Z M 0.521890380859375e3,0.1932568359375e3 C 0.44667938232421875e3,0.1489144287109375e3 0.35332061767578125e3,0.1489144287109375e3 0.278109619140625e3,0.1932568359375e3 L 0.34908563232421875e3,0.2642327880859375e3 C 0.381912353515625e3,0.25192236328125e3 0.418087646484375e3,0.25192236328125e3 0.45091436767578125e3,0.2642327880859375e3 Z M 0.6273477783203125e3,0.503985595703125e3 C 0.6483978271484375e3,0.53936968994140625e3 0.642752685546875e3,0.58452655029296875e3 0.61363958740234375e3,0.6136396484375e3 C 0.58452655029296875e3,0.642752685546875e3 0.53936968994140625e3,0.6483978271484375e3 0.503985595703125e3,0.6273477783203125e3 L 0.503985595703125e3,0.6273477783203125e3 C 0.5126312255859375e3,0.62339337158203125e3 0.521044189453125e3,0.61894903564453125e3 0.52918359375e3,0.61403643798828125e3 L 0.536458984375e3,0.62131182861328125e3 C 0.5709727783203125e3,0.60003094482421875e3 0.60003094482421875e3,0.5709727783203125e3 0.62131182861328125e3,0.53645904541015625e3 L 0.61403643798828125e3,0.52918359375e3 C 0.61894903564453125e3,0.521044189453125e3 0.62339337158203125e3,0.5126312255859375e3 0.6273477783203125e3,0.503985565185546875e3 Z M 0.5378497314453125e3,0.6085604248046875e3 C 0.56594158935546875e3,0.58999285888671875e3 0.58999285888671875e3,0.56594158935546875e3 0.6085604248046875e3,0.5378497314453125e3 L 0.53159722900390625e3,0.46088653564453125e3 C 0.517157470703125e3,0.49209588623046875e3 0.49209588623046875e3,0.517157470703125e3 0.46088653564453125e3,0.53159722900390625e3 Z M 0.6067431640625e3,0.521890380859375e3 C 0.65108563232421875e3,0.446679351806640625e3 0.6510855712890625e3,0.35332061767578125e3 0.6067431640625e3,0.278109619140625e3 L 0.5357672119140625e3,0.34908563232421875e3 C 0.54807763671875e3,0.381912353515625e3 0.54807763671875e3,0.418087646484375e3 0.5357672119140625e3,0.45091436767578125e3 Z M 0.296014404296875e3,0.6273477783203125e3 C 0.26063031005859375e3,0.6483978271484375e3 0.2154734649658203125e3,0.642752685546875e3 0.1863603973388671875e3,0.6136396484375e3 C 0.1572473297119140625e3,0.58452655029296875e3 0.151602142333984375e3,0.5393697509765625e3 0.172652252197265625e3,0.503985595703125e3 L 0.1726522674560546875e3,0.503985626220703125e3 C 0.176606658935546875e3,0.5126312255859375e3 0.1810509796142578125e3,0.52104425048828125e3 0.1859636077880859375e3,0.5291837158203125e3 L 0.1786881866455078125e3,0.5364591064453125e3 C 0.199969085693359375e3,0.57097283935546875e3 0.2290272369384765625e3,0.600031005859375e3 0.263540985107421875e3,0.6213118896484375e3 L 0.27081640625e3,0.61403643798828125e3 C 0.278955810546875e3,0.61894903564453125e3 0.287368804931640625e3,0.62339337158203125e3 0.296014404296875e3,0.6273477783203125e3 Z M 0.1914395599365234375e3,0.5378497314453125e3 C 0.2100070953369140625e3,0.56594158935546875e3 0.23405841064453125e3,0.589992919921875e3 0.2621502685546875e3,0.6085604248046875e3 L 0.339113433837890625e3,0.53159722900390625e3 C 0.30790411376953125e3,0.517157470703125e3 0.282842529296875e3,0.49209588623046875e3 0.268402801513671875e3,0.4608865966796875e3 Z M 0.278109619140625e3,0.6067431640625e3 C 0.35332061767578125e3,0.65108563232421875e3 0.44667938232421875e3,0.65108563232421875e3 0.521890380859375e3,0.6067431640625e3 L 0.450914398193359375e3,0.53576715087890625e3 C 0.418087646484375e3,0.54807763671875e3 0.381912353515625e3,0.54807763671875e3 0.349085601806640625e3,0.53576715087890625e3 Z M 0.172652252197265625e3,0.296014404296875e3 C 0.151602142333984375e3,0.26063031005859375e3 0.1572473297119140625e3,0.21547344970703125e3 0.18636041259765625e3,0.1863603515625e3 C 0.2154734954833984375e3,0.157247314453125e3 0.260630340576171875e3,0.1516021728515625e3 0.296014434814453125e3,0.17265228271484375e3 L 0.296014404296875e3,0.1726522216796875e3 C 0.2873687744140625e3,0.17660662841796875e3 0.27895574951171875e3,0.18105096435546875e3 0.27081634521484375e3,0.185963623046875e3 L 0.26354095458984375e3,0.17868817138671875e3 C 0.2290272064208984375e3,0.19996905517578125e3 0.199969085693359375e3,0.2290272216796875e3 0.178688201904296875e3,0.2635408935546875e3 L 0.1859635467529296875e3,0.27081640625e3 C 0.1810509490966796875e3,0.278955810546875e3 0.1766066436767578125e3,0.2873687744140625e3 0.1726522674560546875e3,0.296014373779296875e3 Z M 0.26215020751953125e3,0.1914395751953125e3 C 0.234058380126953125e3,0.21000714111328125e3 0.210007110595703125e3,0.2340584716796875e3 0.1914395751953125e3,0.2621502685546875e3 L 0.26840277099609375e3,0.33911346435546875e3 C 0.282842498779296875e3,0.307904144287109375e3 0.30790411376953125e3,0.282842529296875e3 0.339113433837890625e3,0.26840277099609375e3 Z M 0.193256805419921875e3,0.27810968017578125e3 C 0.1489143829345703125e3,0.3533206787109375e3 0.1489144134521484375e3,0.446679443359375e3 0.193256866455078125e3,0.521890380859375e3 L 0.26423284912109375e3,0.450914398193359375e3 C 0.251922393798828125e3,0.418087677001953125e3 0.251922393798828125e3,0.381912384033203125e3 0.264232818603515625e3,0.349085662841796875e3 Z " fill="#6d4120" fill-opacity="0.1e1" fill-rule="evenodd" stroke="none"/>
</svg>