<?xml version="1.0" encoding="UTF-8" standalone="no"?>
<svg
   viewBox="0 0 32 32"
   version="1.1"
   id="svg1"
   sodipodi:docname="pool2.svg"
   inkscape:version="1.4.1-rc (832c77b156, 2025-02-28)"
   xmlns:inkscape="http://www.inkscape.org/namespaces/inkscape"
   xmlns:sodipodi="http://sodipodi.sourceforge.net/DTD/sodipodi-0.dtd"
   xmlns="http://www.w3.org/2000/svg"
   xmlns:svg="http://www.w3.org/2000/svg"
   xmlns:rdf="http://www.w3.org/1999/02/22-rdf-syntax-ns#"
   xmlns:cc="http://creativecommons.org/ns#"
   xmlns:dc="http://purl.org/dc/elements/1.1/">
  <defs
     id="defs1" />
  <sodipodi:namedview
     id="namedview1"
     pagecolor="#ffffff"
     bordercolor="#000000"
     borderopacity="0.25"
     inkscape:showpageshadow="2"
     inkscape:pageopacity="0.0"
     inkscape:pagecheckerboard="0"
     inkscape:deskcolor="#d1d1d1"
     inkscape:zoom="27.625"
     inkscape:cx="16"
     inkscape:cy="16.036199"
     inkscape:window-width="1920"
     inkscape:window-height="1131"
     inkscape:window-x="0"
     inkscape:window-y="0"
     inkscape:window-maximized="1"
     inkscape:current-layer="svg1" />
  <title
     id="title1">file_type_prisma</title>
  <path
     id="path1-5"
     style="display:inline;overflow:hidden;mix-blend-mode:normal;fill:#6c707e;fill-opacity:1;stroke:none;stroke-width:0.148615;stroke-dasharray:none;stroke-opacity:1"
     inkscape:label="path1"
     d="M 7.8625,2 A 5.8625,5.8625 0 0 0 2,7.8625 5.8625,5.8625 0 0 0 2.91841,11.01284 14,14 0 0 0 2,16 a 14,14 0 0 0 0.0997,1.64045 14,14 0 0 0 0.0919,0.53611 14,14 0 0 0 0.19901,1.08042 14,14 0 0 0 0.18243,0.62763 14,14 0 0 0 0.29591,0.94447 14,14 0 0 0 0.0495,0.15808 A 5.8625,5.8625 0 0 0 2,24.1375 5.8625,5.8625 0 0 0 7.8625,30 5.8625,5.8625 0 0 0 11.01284,29.08159 14,14 0 0 0 14.30443,29.89695 14,14 0 0 0 16,30 14,14 0 0 0 17.69557,29.89695 14,14 0 0 0 20.98716,29.08159 5.8625,5.8625 0 0 0 24.1375,30 5.8625,5.8625 0 0 0 30,24.1375 5.8625,5.8625 0 0 0 29.08159,20.98716 14,14 0 0 0 30,16 14,14 0 0 0 29.89695,14.30443 14,14 0 0 0 29.08159,11.01284 5.8625,5.8625 0 0 0 30,7.8625 5.8625,5.8625 0 0 0 24.1375,2 5.8625,5.8625 0 0 0 20.98716,2.91841 14,14 0 0 0 20.82908,2.86891 14,14 0 0 0 19.88461,2.573 14,14 0 0 0 19.25698,2.39057 14,14 0 0 0 18.17656,2.19156 14,14 0 0 0 17.64045,2.09966 14,14 0 0 0 16,2 14,14 0 0 0 11.01284,2.91841 5.8625,5.8625 0 0 0 7.8625,2 Z m 0,0.56875 A 5.29375,5.29375 0 0 1 10.35121,3.19022 14,14 0 0 0 9.064,3.83887 L 8.84388,3.61875 A 14.4375,14.4375 0 0 0 3.61875,8.84388 L 3.83887,9.064 A 14,14 0 0 0 3.19022,10.35121 5.29375,5.29375 0 0 1 2.56875,7.8625 5.29375,5.29375 0 0 1 7.8625,2.56875 Z m 16.275,0 A 5.29375,5.29375 0 0 1 29.43125,7.8625 5.29375,5.29375 0 0 1 28.80978,10.35121 14,14 0 0 0 28.23334,9.19226 L 28.58171,8.84388 A 14.4375,14.4375 0 0 0 23.35658,3.61875 L 23.06306,3.91227 A 14,14 0 0 0 22.58967,3.67053 14,14 0 0 0 21.88215,3.30934 14,14 0 0 0 21.64879,3.19022 5.29375,5.29375 0 0 1 24.1375,2.56875 Z M 8.65632,4.2351 12.88136,8.46013 a 8.159375,8.159375 0 0 0 -0.21508,0.10596 8.159375,8.159375 0 0 0 -0.46723,0.2302 8.159375,8.159375 0 0 0 -0.48715,0.27685 8.159375,8.159375 0 0 0 -0.43288,0.28908 8.159375,8.159375 0 0 0 -0.44579,0.33966 8.159375,8.159375 0 0 0 -0.39239,0.3441 8.159375,8.159375 0 0 0 -0.39486,0.39486 8.159375,8.159375 0 0 0 -0.3441,0.39239 8.159375,8.159375 0 0 0 -0.33966,0.44579 8.159375,8.159375 0 0 0 -0.28908,0.43288 8.159375,8.159375 0 0 0 -0.27685,0.48715 8.159375,8.159375 0 0 0 -0.2302,0.46723 8.159375,8.159375 0 0 0 -0.10596,0.21508 L 4.55288,8.97411 4.2351,8.65632 A 13.86875,13.86875 0 0 1 5.06805,7.46567 L 7.46567,5.06805 A 13.86875,13.86875 0 0 1 8.65632,4.2351 Z M 23.451,4.3028 a 13.86875,13.86875 0 0 1 4.38073,4.46173 L 27.51317,9.08309 23.5902,13.00606 A 8.159375,8.159375 0 0 0 23.14757,12.06894 8.159375,8.159375 0 0 0 22.96497,11.77773 8.159375,8.159375 0 0 0 22.58976,11.19522 8.159375,8.159375 0 0 0 22.33068,10.87675 8.159375,8.159375 0 0 0 21.92582,10.39943 8.159375,8.159375 0 0 0 21.60948,10.09583 8.159375,8.159375 0 0 0 21.16617,9.69405 8.159375,8.159375 0 0 0 20.80387,9.42309 8.159375,8.159375 0 0 0 20.3233,9.09061 8.159375,8.159375 0 0 0 19.9222,8.86152 8.159375,8.159375 0 0 0 19.4113,8.59927 8.159375,8.159375 0 0 0 19.2416,8.51217 l 3.8923,-3.8923 z M 16,8.4094 a 7.590625,7.590625 0 0 1 0.85911,0.0534 7.590625,7.590625 0 0 1 0.266,0.04 7.590625,7.590625 0 0 1 0.59165,0.11134 7.590625,7.590625 0 0 1 0.29241,0.0743 7.590625,7.590625 0 0 1 0.44442,0.14244 7.590625,7.590625 0 0 1 0.68111,0.26335 7.590625,7.590625 0 0 1 0.74931,0.40281 7.590625,7.590625 0 0 1 0.0932,0.0522 7.590625,7.590625 0 0 1 0.76683,0.54662 7.590625,7.590625 0 0 1 0.51363,0.4522 7.590625,7.590625 0 0 1 3.5e-4,2.6e-4 7.590625,7.590625 0 0 1 0.44519,0.45211 7.590625,7.590625 0 0 1 4.4e-4,4.4e-4 7.590625,7.590625 0 0 1 0.10553,0.11989 7.590625,7.590625 0 0 1 9e-5,1.7e-4 7.590625,7.590625 0 0 1 1.43571,2.65072 7.590625,7.590625 0 0 1 0.0797,0.27677 7.590625,7.590625 0 0 1 0.15184,0.71119 7.590625,7.590625 0 0 1 0.045,0.26524 7.590625,7.590625 0 0 1 0.069,0.97521 7.590625,7.590625 0 0 1 -0.0529,0.8944 7.590625,7.590625 0 0 1 -0.15791,0.88192 7.590625,7.590625 0 0 1 -0.2607,0.85722 v 9e-5 a 7.590625,7.590625 0 0 1 -4.48549,4.48549 7.590625,7.590625 0 0 1 -9e-5,0 7.590625,7.590625 0 0 1 -0.85722,0.2607 7.590625,7.590625 0 0 1 -1.77621,0.2108 7.590625,7.590625 0 0 1 -0.97523,-0.069 7.590625,7.590625 0 0 1 -0.26524,-0.045 7.590625,7.590625 0 0 1 -0.71119,-0.15184 7.590625,7.590625 0 0 1 -0.27677,-0.0797 7.590625,7.590625 0 0 1 -2.65072,-1.43572 7.590625,7.590625 0 0 1 -1.8e-4,-8e-5 7.590625,7.590625 0 0 1 -0.11988,-0.10553 7.590625,7.590625 0 0 1 -4.4e-4,-4.4e-4 7.590625,7.590625 0 0 1 -0.45211,-0.44519 7.590625,7.590625 0 0 1 -2.6e-4,-3.5e-4 7.590625,7.590625 0 0 1 -0.4522,-0.51364 A 7.590625,7.590625 0 0 1 9.54916,19.97737 7.590625,7.590625 0 0 1 9.49696,19.88417 7.590625,7.590625 0 0 1 9.09415,19.13486 7.590625,7.590625 0 0 1 8.8308,18.45375 7.590625,7.590625 0 0 1 8.68836,18.00933 7.590625,7.590625 0 0 1 8.61406,17.71692 7.590625,7.590625 0 0 1 8.50272,17.12527 a 7.590625,7.590625 0 0 1 -0.04,-0.266 7.590625,7.590625 0 0 1 -0.0534,-0.85909 7.590625,7.590625 0 0 1 0.45682,-2.54835 7.590625,7.590625 0 0 1 0.14005,-0.39503 7.590625,7.590625 0 0 1 0.2584,-0.52406 7.590625,7.590625 0 0 1 0.17765,-0.35171 7.590625,7.590625 0 0 1 0.36717,-0.54961 7.590625,7.590625 0 0 1 0.17748,-0.26233 7.590625,7.590625 0 0 1 0.64565,-0.73632 A 7.590625,7.590625 0 0 1 11.36886,9.98712 7.590625,7.590625 0 0 1 11.63119,9.80964 7.590625,7.590625 0 0 1 12.1808,9.44247 7.590625,7.590625 0 0 1 12.53251,9.26482 7.590625,7.590625 0 0 1 13.05657,9.00642 7.590625,7.590625 0 0 1 13.4516,8.86637 7.590625,7.590625 0 0 1 16,8.40955 Z m 7.53987,10.70927 4.22503,4.22504 a 13.86875,13.86875 0 0 1 -4.42122,4.42122 L 23.02589,27.44715 19.11864,23.5399 a 8.159375,8.159375 0 0 0 0.21508,-0.10596 8.159375,8.159375 0 0 0 0.46723,-0.2302 8.159375,8.159375 0 0 0 0.48715,-0.27685 8.159375,8.159375 0 0 0 0.43288,-0.28908 8.159375,8.159375 0 0 0 0.44579,-0.33966 8.159375,8.159375 0 0 0 0.39239,-0.3441 8.159375,8.159375 0 0 0 0.39486,-0.39486 8.159375,8.159375 0 0 0 0.3441,-0.39239 8.159375,8.159375 0 0 0 0.33966,-0.44579 8.159375,8.159375 0 0 0 0.28908,-0.43288 8.159375,8.159375 0 0 0 0.27685,-0.48715 8.159375,8.159375 0 0 0 0.2302,-0.46723 8.159375,8.159375 0 0 0 0.10596,-0.21508 z m -15.0277,0.12296 a 8.159375,8.159375 0 0 0 0.0871,0.1697 8.159375,8.159375 0 0 0 0.26225,0.5109 8.159375,8.159375 0 0 0 0.22909,0.4011 8.159375,8.159375 0 0 0 0.33248,0.48057 8.159375,8.159375 0 0 0 0.27096,0.3623 8.159375,8.159375 0 0 0 0.40178,0.44331 8.159375,8.159375 0 0 0 0.3036,0.31634 8.159375,8.159375 0 0 0 0.47732,0.40486 8.159375,8.159375 0 0 0 0.31847,0.25908 8.159375,8.159375 0 0 0 0.58251,0.37521 8.159375,8.159375 0 0 0 0.29121,0.1826 8.159375,8.159375 0 0 0 0.93712,0.44263 L 8.76453,27.83176 A 13.86875,13.86875 0 0 1 4.3028,23.45103 Z m -5.32195,2.40719 a 14,14 0 0 0 0.11912,0.23336 14,14 0 0 0 0.36119,0.70752 14,14 0 0 0 0.24174,0.47339 l -0.29352,0.29352 a 14.4375,14.4375 0 0 0 5.22513,5.22513 l 0.34838,-0.34837 a 14,14 0 0 0 1.15895,0.57644 5.29375,5.29375 0 0 1 -2.48871,0.62147 5.29375,5.29375 0 0 1 -5.29375,-5.29375 5.29375,5.29375 0 0 1 0.62147,-2.48871 z m 25.61956,0 a 5.29375,5.29375 0 0 1 0.62147,2.48871 5.29375,5.29375 0 0 1 -5.29375,5.29375 5.29375,5.29375 0 0 1 -2.48871,-0.62147 14,14 0 0 0 1.28721,-0.64865 l 0.42058,0.42058 a 14.4375,14.4375 0 0 0 5.22513,-5.22513 l -0.42058,-0.42058 a 14,14 0 0 0 0.64865,-1.28721 z" />
  <metadata
     id="metadata1">
    <rdf:RDF>
      <cc:Work
         rdf:about="">
        <dc:title>file_type_prisma</dc:title>
      </cc:Work>
    </rdf:RDF>
  </metadata>
</svg>
