<svg version="1.1" xmlns="http://www.w3.org/2000/svg" xmlns:xlink="http://www.w3.org/1999/xlink" viewBox="0 0 0.32e2 0.32e2">
  <path d="M 0.1017680454254150390625e2,0.3268527984619140625e1 C 0.138747100830078125e2,0.157715606689453125e1 0.181252899169921875e2,0.157715606689453125e1 0.218231964111328125e2,0.3268527984619140625e1 L 0.21202564239501953125e2,0.30025634765625e1 C 0.23428157806396484375e2,0.145470428466796875e1 0.26442882537841796875e2,0.1723285675048828125e1 0.28359798431396484375e2,0.3640201568603515625e1 C 0.30276714324951171875e2,0.5557117462158203125e1 0.3054529571533203125e2,0.8571842193603515625e1 0.289974365234375e2,0.10797435760498046875e2 L 0.28731472015380859375e2,0.101768035888671875e2 C 0.3042284393310546875e2,0.138747100830078125e2 0.304228420257568359375e2,0.181252899169921875e2 0.28731472015380859375e2,0.218231964111328125e2 L 0.289974346160888671875e2,0.21202564239501953125e2 C 0.3054529571533203125e2,0.23428157806396484375e2 0.30276714324951171875e2,0.26442882537841796875e2 0.28359798431396484375e2,0.28359798431396484375e2 C 0.26442882537841796875e2,0.30276714324951171875e2 0.23428157806396484375e2,0.3054529571533203125e2 0.21202564239501953125e2,0.289974346160888671875e2 L 0.218231964111328125e2,0.28731472015380859375e2 C 0.181252899169921875e2,0.304228420257568359375e2 0.1387471103668212890625e2,0.3042284393310546875e2 0.1017680454254150390625e2,0.28731472015380859375e2 L 0.10797435760498046875e2,0.289974346160888671875e2 C 0.857184314727783203125e1,0.3054529571533203125e2 0.55571193695068359375e1,0.30276714324951171875e2 0.364020252227783203125e1,0.28359798431396484375e2 C 0.1723285675048828125e1,0.26442882537841796875e2 0.145470428466796875e1,0.23428157806396484375e2 0.3002564907073974609375e1,0.21202564239501953125e2 L 0.326852703094482421875e1,0.218231945037841796875e2 C 0.15771579742431640625e1,0.181252899169921875e2 0.15771579742431640625e1,0.138747100830078125e2 0.326852703094482421875e1,0.101768054962158203125e2 L 0.3002564907073974609375e1,0.10797435760498046875e2 C 0.145470428466796875e1,0.8571842193603515625e1 0.1723286151885986328125e1,0.5557117462158203125e1 0.36402034759521484375e1,0.3640201568603515625e1 C 0.5557120800018310546875e1,0.1723285675048828125e1 0.8571842193603515625e1,0.145470428466796875e1 0.10797435760498046875e2,0.30025653839111328125e1 Z M 0.16e2,0.84400005340576171875e1 C 0.201752719879150390625e2,0.84400005340576171875e1 0.235599994659423828125e2,0.118247280120849609375e2 0.235599994659423828125e2,0.16e2 C 0.235599994659423828125e2,0.201752719879150390625e2 0.201752719879150390625e2,0.235599994659423828125e2 0.16e2,0.235599994659423828125e2 C 0.118247280120849609375e2,0.235599994659423828125e2 0.84400005340576171875e1,0.201752719879150390625e2 0.84400005340576171875e1,0.16e2 C 0.84400005340576171875e1,0.118247280120849609375e2 0.118247280120849609375e2,0.84400005340576171875e1 0.16e2,0.84400005340576171875e1 Z M 0.21823192596435546875e2,0.32685260772705078125e1 C 0.238047027587890625e2,0.20897197723388671875e1 0.263334865570068359375e2,0.2405849456787109375e1 0.27963817596435546875e2,0.4036182403564453125e1 C 0.29594150543212890625e2,0.56665134429931640625e1 0.299102802276611328125e2,0.81952972412109375e1 0.28731475830078125e2,0.101768054962158203125e2 L 0.28731472015380859375e2,0.101768035888671875e2 C 0.285100269317626953125e2,0.969264984130859375e1 0.2826114654541015625e2,0.9221523284912109375e1 0.279860401153564453125e2,0.87657184600830078125e1 L 0.28393463134765625e2,0.83582935333251953125e1 C 0.27201732635498046875e2,0.64255237579345703125e1 0.255744781494140625e2,0.4798267364501953125e1 0.236417064666748046875e2,0.3606536865234375e1 L 0.232342815399169921875e2,0.40139598846435546875e1 C 0.22778476715087890625e2,0.373885345458984375e1 0.223073482513427734375e2,0.3489971160888671875e1 0.218231964111328125e2,0.3268527984619140625e1 Z M 0.2767938232421875e2,0.8280414581298828125e1 C 0.266396007537841796875e2,0.6707271575927734375e1 0.25292728424072265625e2,0.53603992462158203125e1 0.23719585418701171875e2,0.432061767578125e1 L 0.194096469879150390625e2,0.86305561065673828125e1 C 0.211573696136474609375e2,0.94391803741455078125e1 0.225608196258544921875e2,0.10842632293701171875e2 0.2336944580078125e2,0.1259035491943359375e2 Z M 0.28731475830078125e2,0.21823192596435546875e2 C 0.299102802276611328125e2,0.238047027587890625e2 0.29594150543212890625e2,0.263334865570068359375e2 0.27963817596435546875e2,0.27963817596435546875e2 C 0.263334865570068359375e2,0.29594150543212890625e2 0.238047027587890625e2,0.299102802276611328125e2 0.21823192596435546875e2,0.287314739227294921875e2 L 0.218231964111328125e2,0.28731472015380859375e2 C 0.2230735015869140625e2,0.285100269317626953125e2 0.22778476715087890625e2,0.2826114654541015625e2 0.23234283447265625e2,0.279860401153564453125e2 L 0.23641704559326171875e2,0.28393463134765625e2 C 0.255744762420654296875e2,0.27201732635498046875e2 0.27201732635498046875e2,0.255744781494140625e2 0.28393463134765625e2,0.236417064666748046875e2 L 0.279860382080078125e2,0.23234283447265625e2 C 0.282611446380615234375e2,0.22778476715087890625e2 0.285100269317626953125e2,0.2230735015869140625e2 0.28731472015380859375e2,0.218231964111328125e2 Z M 0.237195873260498046875e2,0.2767938232421875e2 C 0.25292728424072265625e2,0.266396007537841796875e2 0.266396007537841796875e2,0.25292728424072265625e2 0.2767938232421875e2,0.237195873260498046875e2 L 0.233694438934326171875e2,0.194096469879150390625e2 C 0.225608196258544921875e2,0.211573696136474609375e2 0.211573696136474609375e2,0.225608196258544921875e2 0.194096469879150390625e2,0.233694438934326171875e2 Z M 0.10176807403564453125e2,0.287314739227294921875e2 C 0.81952972412109375e1,0.299102802276611328125e2 0.5666513919830322265625e1,0.29594150543212890625e2 0.4036182403564453125e1,0.27963817596435546875e2 C 0.240585041046142578125e1,0.263334865570068359375e2 0.2089720249176025390625e1,0.238047027587890625e2 0.3268525600433349609375e1,0.21823192596435546875e2 L 0.326852703094482421875e1,0.218231945037841796875e2 C 0.34899730682373046875e1,0.2230735015869140625e2 0.373885440826416015625e1,0.227784786224365234375e2 0.40139617919921875e1,0.23234287261962890625e2 L 0.360653781890869140625e1,0.236417102813720703125e2 C 0.479826831817626953125e1,0.255744800567626953125e2 0.642552471160888671875e1,0.272017345428466796875e2 0.835829448699951171875e1,0.28393463134765625e2 L 0.87657184600830078125e1,0.279860401153564453125e2 C 0.9221523284912109375e1,0.2826114654541015625e2 0.96926517486572265625e1,0.28510028839111328125e2 0.1017680454254150390625e2,0.28731472015380859375e2 Z M 0.43206157684326171875e1,0.23719585418701171875e2 C 0.536039829254150390625e1,0.25292728424072265625e2 0.670727062225341796875e1,0.266396007537841796875e2 0.8280414581298828125e1,0.2767938232421875e2 L 0.1259035205841064453125e2,0.233694438934326171875e2 C 0.1084263134002685546875e2,0.22560817718505859375e2 0.9439182281494140625e1,0.211573696136474609375e2 0.863055706024169921875e1,0.19409648895263671875e2 Z M 0.3268525600433349609375e1,0.10176807403564453125e2 C 0.20897197723388671875e1,0.81952972412109375e1 0.240585041046142578125e1,0.566651153564453125e1 0.403618335723876953125e1,0.40361804962158203125e1 C 0.5666515827178955078125e1,0.2405849456787109375e1 0.819530010223388671875e1,0.20897197723388671875e1 0.101768093109130859375e2,0.3268527984619140625e1 L 0.10176807403564453125e2,0.32685260772705078125e1 C 0.96926517486572265625e1,0.3489971160888671875e1 0.9221523284912109375e1,0.373885345458984375e1 0.876571559906005859375e1,0.40139617919921875e1 L 0.83582916259765625e1,0.3606536865234375e1 C 0.64255237579345703125e1,0.4798267364501953125e1 0.479826831817626953125e1,0.64255218505859375e1 0.36065387725830078125e1,0.83582897186279296875e1 L 0.401395893096923828125e1,0.87657184600830078125e1 C 0.373885345458984375e1,0.92215251922607421875e1 0.348997211456298828125e1,0.96926517486572265625e1 0.326852703094482421875e1,0.101768054962158203125e2 Z M 0.828041172027587890625e1,0.432061767578125e1 C 0.67072696685791015625e1,0.53603992462158203125e1 0.536039829254150390625e1,0.6707271575927734375e1 0.432061672210693359375e1,0.8280414581298828125e1 L 0.863055515289306640625e1,0.1259035491943359375e2 C 0.94391803741455078125e1,0.10842632293701171875e2 0.108426303863525390625e2,0.9439182281494140625e1 0.1259035205841064453125e2,0.86305561065673828125e1 Z " fill="#6c707e" fill-opacity="0.1e1" fill-rule="evenodd" stroke="none"/>
</svg>