<?xml version="1.0" encoding="UTF-8" standalone="no"?>
<svg
   class="svg-icon"
   style="width: 1em; height: 1em;vertical-align: middle;fill: currentColor;overflow: hidden;"
   viewBox="0 0 1024 1024"
   version="1.1"
   id="svg39"
   sodipodi:docname="pool_logo.svg"
   inkscape:version="1.4.1-rc (832c77b156, 2025-02-28)"
   xmlns:inkscape="http://www.inkscape.org/namespaces/inkscape"
   xmlns:sodipodi="http://sodipodi.sourceforge.net/DTD/sodipodi-0.dtd"
   xmlns="http://www.w3.org/2000/svg"
   xmlns:svg="http://www.w3.org/2000/svg">
  <defs
     id="defs39" />
  <sodipodi:namedview
     id="namedview39"
     pagecolor="#ffffff"
     bordercolor="#000000"
     borderopacity="0.25"
     inkscape:showpageshadow="2"
     inkscape:pageopacity="0.0"
     inkscape:pagecheckerboard="0"
     inkscape:deskcolor="#d1d1d1"
     inkscape:zoom="0.86328125"
     inkscape:cx="512"
     inkscape:cy="512"
     inkscape:window-width="1920"
     inkscape:window-height="1131"
     inkscape:window-x="0"
     inkscape:window-y="0"
     inkscape:window-maximized="1"
     inkscape:current-layer="svg39" />
  <path
     id="path60"
     style="width:1em;height:1em;vertical-align:middle;fill:#fcd4ee;overflow:hidden;display:inline;mix-blend-mode:normal;fill-opacity:1;stroke:none;stroke-width:3.39692;stroke-dasharray:none;stroke-opacity:1"
     inkscape:label="BackgroundFill"
     d="M 324 190 A 134 134 0 0 0 190 324 A 134 134 0 0 0 210.99219 396.00781 A 320 320 0 0 1 396.00781 210.99219 A 134 134 0 0 0 324 190 z M 696 190 A 134 134 0 0 0 623.99219 210.99219 A 320 320 0 0 1 809.00781 396.00781 A 134 134 0 0 0 830 324 A 134 134 0 0 0 696 190 z M 510 336.5 A 173.5 173.5 0 0 0 336.5 510 A 173.5 173.5 0 0 0 510 683.5 A 173.5 173.5 0 0 0 683.5 510 A 173.5 173.5 0 0 0 510 336.5 z M 210.99219 623.99219 A 134 134 0 0 0 190 696 A 134 134 0 0 0 324 830 A 134 134 0 0 0 396.00781 809.00781 A 320 320 0 0 1 210.99219 623.99219 z M 809.00781 623.99219 A 320 320 0 0 1 623.99219 809.00781 A 134 134 0 0 0 696 830 A 134 134 0 0 0 830 696 A 134 134 0 0 0 809.00781 623.99219 z " />
  <path
     id="circle61"
     style="width:1em;height:1em;vertical-align:middle;fill:#f9c5e9;overflow:hidden;display:inline;mix-blend-mode:normal;fill-opacity:1;stroke:none;stroke-width:1.42246;stroke-dasharray:none;stroke-opacity:1"
     inkscape:label="Backgroundshadow"
     d="M 359 225 A 134 134 0 0 0 225 359 A 134 134 0 0 0 225.10352 364.2793 A 320 320 0 0 1 364.2793 225.10352 A 134 134 0 0 0 359 225 z M 664 225 A 134 134 0 0 0 655.98438 225.24023 A 320 320 0 0 1 797.57617 369.64453 A 134 134 0 0 0 798 359 A 134 134 0 0 0 664 225 z M 797.34961 650.81836 A 320 320 0 0 1 650.81836 797.34961 A 134 134 0 0 0 664 798 A 134 134 0 0 0 798 664 A 134 134 0 0 0 797.34961 650.81836 z M 225.24023 655.98438 A 134 134 0 0 0 225 664 A 134 134 0 0 0 359 798 A 134 134 0 0 0 369.64453 797.57617 A 320 320 0 0 1 225.24023 655.98438 z " />
  <path
     id="circle43"
     style="width:1em;height:1em;vertical-align:middle;fill:#f7a75f;overflow:hidden;display:inline;mix-blend-mode:normal;fill-opacity:1;stroke:none;stroke-width:3.39692;stroke-dasharray:none;stroke-opacity:1"
     inkscape:label="Ringfill"
     d="m 510,190 a 320,320 0 0 0 -169.12695,48.3457 l 108.92968,108.93164 h 0.002 A 173.5,173.5 0 0 1 510,336.5 a 173.5,173.5 0 0 1 63.09375,11.87891 h 0.002 L 681.58203,239.89062 A 320,320 0 0 0 510,190 Z M 238.3457,340.87305 A 320,320 0 0 0 190,510 320,320 0 0 0 239.89062,681.58203 L 348.37891,573.0957 a 173.5,173.5 0 0 1 0,-0.002 A 173.5,173.5 0 0 1 336.5,510 a 173.5,173.5 0 0 1 10.77734,-60.19531 173.5,173.5 0 0 1 0,-0.002 z m 544.83399,2.47461 -109.39844,109.39648 a 173.5,173.5 0 0 1 0,0.002 A 173.5,173.5 0 0 1 683.5,510 173.5,173.5 0 0 1 672.72266,570.19531 v 0.002 L 781.6543,679.12695 A 320,320 0 0 0 830,510 320,320 0 0 0 783.17969,343.34766 Z m -212.98438,329.375 A 173.5,173.5 0 0 1 510,683.5 a 173.5,173.5 0 0 1 -57.25391,-9.71875 173.5,173.5 0 0 1 -0.002,0 L 343.34766,783.17969 A 320,320 0 0 0 510,830 320,320 0 0 0 679.12695,781.6543 L 570.19727,672.72266 Z" />
  <path
     id="circle56"
     style="width:1em;height:1em;vertical-align:middle;fill:#f78537;overflow:hidden;display:inline;mix-blend-mode:normal;fill-opacity:1;stroke:none;stroke-width:2.17614;stroke-dasharray:none;stroke-opacity:1"
     inkscape:label="Ringshadow"
     d="m 510,190 a 320,320 0 0 0 -43.02344,3 320,320 0 0 0 -14.03515,2.77734 320,320 0 0 0 -28.20899,5.97852 320,320 0 0 0 -16.18554,5.4668 320,320 0 0 0 -24.47657,8.88086 320,320 0 0 0 -16.4082,8.04882 320,320 0 0 0 -14.26953,7.56055 A 320,320 0 0 1 455,215 320,320 0 0 1 644.40234,277.07227 l 36.7168,-36.71875 a 320,320 0 0 0 -7.98047,-5.17774 320,320 0 0 0 -13.98437,-7.81055 320,320 0 0 0 -20.8086,-9.99023 320,320 0 0 0 -14.65039,-6.12695 320,320 0 0 0 -22.52539,-7.45703 320,320 0 0 0 -14.47656,-4.20899 320,320 0 0 0 -25.59961,-4.97265 320,320 0 0 0 -12.45898,-2.13477 A 320,320 0 0 0 510,190 Z m 0,115 a 205,205 0 0 0 -84.32617,18.14648 l 24.1289,24.13086 h 0.002 A 173.5,173.5 0 0 1 510,336.5 a 173.5,173.5 0 0 1 63.09375,11.87891 h 0.002 L 597.06641,324.4082 A 205,205 0 0 0 510,305 Z m 273.17969,38.34766 -44.18555,44.18359 A 320,320 0 0 1 775,535 320,320 0 0 1 753.31641,650.78906 l 28.33789,28.33789 A 320,320 0 0 0 830,510 320,320 0 0 0 783.17969,343.34766 Z M 323.14648,425.67383 A 205,205 0 0 0 305,510 a 205,205 0 0 0 19.4082,87.06641 l 23.97071,-23.97071 a 173.5,173.5 0 0 1 0,-0.002 A 173.5,173.5 0 0 1 336.5,510 a 173.5,173.5 0 0 1 10.77734,-60.19531 173.5,173.5 0 0 1 0,-0.002 z m 374.9336,2.77148 -24.29883,24.29883 a 173.5,173.5 0 0 1 0,0.002 A 173.5,173.5 0 0 1 683.5,510 173.5,173.5 0 0 1 672.72266,570.19531 v 0.002 l 24.13086,24.1289 A 205,205 0 0 0 715,510 205,205 0 0 0 698.08008,428.44531 Z M 570.19531,672.72266 A 173.5,173.5 0 0 1 510,683.5 a 173.5,173.5 0 0 1 -57.25391,-9.71875 173.5,173.5 0 0 1 -0.002,0 l -24.29883,24.29883 A 205,205 0 0 0 510,715 205,205 0 0 0 594.32617,696.85352 l -24.1289,-24.13086 z m 99.53516,99.53515 a 320,320 0 0 1 -52.66406,38.48242 320,320 0 0 0 14.16015,-5.13671 320,320 0 0 0 11.84571,-4.84571 320,320 0 0 0 36.05468,-19.10351 z" />
  <path
     id="path56"
     style="width:1em;height:1em;vertical-align:middle;fill:#6d4120;overflow:hidden;display:inline;mix-blend-mode:normal;fill-opacity:1;stroke:none;stroke-width:1.97977;stroke-dasharray:none;stroke-opacity:1"
     inkscape:label="Outline"
     d="M 324 190 A 134 134 0 0 0 190 324 A 134 134 0 0 0 210.99219 396.00781 A 320 320 0 0 0 190 510 A 320 320 0 0 0 210.99219 623.99219 A 134 134 0 0 0 190 696 A 134 134 0 0 0 324 830 A 134 134 0 0 0 396.00781 809.00781 A 320 320 0 0 0 510 830 A 320 320 0 0 0 623.99219 809.00781 A 134 134 0 0 0 696 830 A 134 134 0 0 0 830 696 A 134 134 0 0 0 809.00781 623.99219 A 320 320 0 0 0 830 510 A 320 320 0 0 0 809.00781 396.00781 A 134 134 0 0 0 830 324 A 134 134 0 0 0 696 190 A 134 134 0 0 0 623.99219 210.99219 A 320 320 0 0 0 510 190 A 320 320 0 0 0 396.00781 210.99219 A 134 134 0 0 0 324 190 z M 324 203 A 121 121 0 0 1 380.88477 217.20508 A 320 320 0 0 0 351.46484 232.0332 L 346.43164 227 A 330 330 0 0 0 227 346.43164 L 232.0332 351.46484 A 320 320 0 0 0 217.20508 380.88477 A 121 121 0 0 1 203 324 A 121 121 0 0 1 324 203 z M 510 203 A 307 307 0 0 1 661.92383 243.22656 L 571.29102 333.85938 A 186.5 186.5 0 0 0 510 323.5 A 186.5 186.5 0 0 0 452.13477 332.70312 L 361.00781 241.57617 A 307 307 0 0 1 510 203 z M 696 203 A 121 121 0 0 1 817 324 A 121 121 0 0 1 802.79492 380.88477 A 320 320 0 0 0 789.61914 354.39453 L 797.58203 346.43164 A 330 330 0 0 0 678.15039 227 L 671.44141 233.70898 A 320 320 0 0 0 639.11523 217.20508 A 121 121 0 0 1 696 203 z M 342.14453 241.08789 L 438.7168 337.66016 A 186.5 186.5 0 0 0 433.80078 340.08203 A 186.5 186.5 0 0 0 423.12109 345.34375 A 186.5 186.5 0 0 0 411.98633 351.67188 A 186.5 186.5 0 0 0 402.0918 358.2793 A 186.5 186.5 0 0 0 391.90234 366.04297 A 186.5 186.5 0 0 0 382.93359 373.9082 A 186.5 186.5 0 0 0 373.9082 382.93359 A 186.5 186.5 0 0 0 366.04297 391.90234 A 186.5 186.5 0 0 0 358.2793 402.0918 A 186.5 186.5 0 0 0 351.67188 411.98633 A 186.5 186.5 0 0 0 345.34375 423.12109 A 186.5 186.5 0 0 0 340.08203 433.80078 A 186.5 186.5 0 0 0 337.66016 438.7168 L 248.35156 349.4082 L 241.08789 342.14453 A 317 317 0 0 1 260.12695 314.92969 L 314.92969 260.12695 A 317 317 0 0 1 342.14453 241.08789 z M 680.30859 242.63477 A 317 317 0 0 1 780.43945 344.61719 L 773.1582 351.89844 L 683.49023 441.56641 A 186.5 186.5 0 0 0 673.37305 420.14648 A 186.5 186.5 0 0 0 669.19922 413.49023 A 186.5 186.5 0 0 0 660.62305 400.17578 A 186.5 186.5 0 0 0 654.70117 392.89648 A 186.5 186.5 0 0 0 645.44727 381.98633 A 186.5 186.5 0 0 0 638.2168 375.04688 A 186.5 186.5 0 0 0 628.08398 365.86328 A 186.5 186.5 0 0 0 619.80273 359.66992 A 186.5 186.5 0 0 0 608.81836 352.07031 A 186.5 186.5 0 0 0 599.65039 346.83398 A 186.5 186.5 0 0 0 587.97266 340.83984 A 186.5 186.5 0 0 0 584.09375 338.84961 L 673.06055 249.88281 L 680.30859 242.63477 z M 510 336.5 A 173.5 173.5 0 0 1 560.98828 344.16211 A 173.5 173.5 0 0 1 581.65039 352.15234 A 173.5 173.5 0 0 1 598.77734 361.35938 A 173.5 173.5 0 0 1 600.9082 362.55273 A 173.5 173.5 0 0 1 618.43555 375.04688 A 173.5 173.5 0 0 1 630.17578 385.38281 A 173.5 173.5 0 0 1 630.18359 385.38867 A 173.5 173.5 0 0 1 640.35938 395.72266 A 173.5 173.5 0 0 1 640.36914 395.73242 A 173.5 173.5 0 0 1 642.78125 398.47266 A 173.5 173.5 0 0 1 642.7832 398.47656 A 173.5 173.5 0 0 1 683.5 510 A 173.5 173.5 0 0 1 510 683.5 A 173.5 173.5 0 0 1 398.47656 642.7832 A 173.5 173.5 0 0 1 398.47266 642.78125 A 173.5 173.5 0 0 1 395.73242 640.36914 A 173.5 173.5 0 0 1 395.72266 640.35938 A 173.5 173.5 0 0 1 385.38867 630.18359 A 173.5 173.5 0 0 1 385.38281 630.17578 A 173.5 173.5 0 0 1 375.04688 618.43555 A 173.5 173.5 0 0 1 362.55273 600.9082 A 173.5 173.5 0 0 1 361.35938 598.77734 A 173.5 173.5 0 0 1 352.15234 581.65039 A 173.5 173.5 0 0 1 344.16211 560.98828 A 173.5 173.5 0 0 1 336.5 510 A 173.5 173.5 0 0 1 346.94141 451.75195 A 173.5 173.5 0 0 1 350.14258 442.72266 A 173.5 173.5 0 0 1 356.04883 430.74414 A 173.5 173.5 0 0 1 360.10938 422.70508 A 173.5 173.5 0 0 1 368.50195 410.14258 A 173.5 173.5 0 0 1 372.55859 404.14648 A 173.5 173.5 0 0 1 387.31641 387.31641 A 173.5 173.5 0 0 1 404.14648 372.55859 A 173.5 173.5 0 0 1 410.14258 368.50195 A 173.5 173.5 0 0 1 422.70508 360.10938 A 173.5 173.5 0 0 1 430.74414 356.04883 A 173.5 173.5 0 0 1 442.72266 350.14258 A 173.5 173.5 0 0 1 451.75195 346.94141 A 173.5 173.5 0 0 1 510 336.5 z M 241.57617 361.00781 L 332.70312 452.13477 A 186.5 186.5 0 0 0 323.5 510 A 186.5 186.5 0 0 0 333.85938 571.29102 L 243.22656 661.92383 A 307 307 0 0 1 203 510 A 307 307 0 0 1 241.57617 361.00781 z M 780.04297 363.9707 A 307 307 0 0 1 817 510 A 307 307 0 0 1 778.42383 658.99219 L 687.29688 567.86523 A 186.5 186.5 0 0 0 696.5 510 A 186.5 186.5 0 0 0 688.39453 455.61914 L 780.04297 363.9707 z M 682.33984 581.2832 L 778.91211 677.85547 A 317 317 0 0 1 677.85547 778.91211 L 670.5918 771.64844 L 581.2832 682.33984 A 186.5 186.5 0 0 0 586.19922 679.91797 A 186.5 186.5 0 0 0 596.87891 674.65625 A 186.5 186.5 0 0 0 608.01367 668.32812 A 186.5 186.5 0 0 0 617.9082 661.7207 A 186.5 186.5 0 0 0 628.09766 653.95703 A 186.5 186.5 0 0 0 637.06641 646.0918 A 186.5 186.5 0 0 0 646.0918 637.06641 A 186.5 186.5 0 0 0 653.95703 628.09766 A 186.5 186.5 0 0 0 661.7207 617.9082 A 186.5 186.5 0 0 0 668.32812 608.01367 A 186.5 186.5 0 0 0 674.65625 596.87891 A 186.5 186.5 0 0 0 679.91797 586.19922 A 186.5 186.5 0 0 0 682.33984 581.2832 z M 338.84961 584.09375 A 186.5 186.5 0 0 0 340.83984 587.97266 A 186.5 186.5 0 0 0 346.83398 599.65039 A 186.5 186.5 0 0 0 352.07031 608.81836 A 186.5 186.5 0 0 0 359.66992 619.80273 A 186.5 186.5 0 0 0 365.86328 628.08398 A 186.5 186.5 0 0 0 375.04688 638.2168 A 186.5 186.5 0 0 0 381.98633 645.44727 A 186.5 186.5 0 0 0 392.89648 654.70117 A 186.5 186.5 0 0 0 400.17578 660.62305 A 186.5 186.5 0 0 0 413.49023 669.19922 A 186.5 186.5 0 0 0 420.14648 673.37305 A 186.5 186.5 0 0 0 441.56641 683.49023 L 344.61719 780.43945 A 317 317 0 0 1 242.63477 680.30859 L 338.84961 584.09375 z M 217.20508 639.11523 A 320 320 0 0 0 233.70898 671.44141 L 227 678.15039 A 330 330 0 0 0 346.43164 797.58203 L 354.39453 789.61914 A 320 320 0 0 0 380.88477 802.79492 A 121 121 0 0 1 324 817 A 121 121 0 0 1 203 696 A 121 121 0 0 1 217.20508 639.11523 z M 802.79492 639.11523 A 121 121 0 0 1 817 696 A 121 121 0 0 1 696 817 A 121 121 0 0 1 639.11523 802.79492 A 320 320 0 0 0 668.53516 787.9668 L 678.15039 797.58203 A 330 330 0 0 0 797.58203 678.15039 L 787.9668 668.53516 A 320 320 0 0 0 802.79492 639.11523 z M 567.86523 687.29688 L 658.99219 778.42383 A 307 307 0 0 1 510 817 A 307 307 0 0 1 363.9707 780.04297 L 455.61914 688.39453 A 186.5 186.5 0 0 0 510 696.5 A 186.5 186.5 0 0 0 567.86523 687.29688 z " />
  <path
     id="path49"
     style="display:inline;overflow:hidden;mix-blend-mode:normal;fill:#ffffff;fill-opacity:1;stroke:none;stroke-width:3.36508;stroke-dasharray:none;stroke-opacity:1"
     inkscape:label="Highlightfill"
     d="m 342.14453,241.08789 a 317,317 0 0 0 -27.21484,19.03906 l -54.80274,54.80274 a 317,317 0 0 0 -19.03906,27.21484 l 96.57227,96.57227 A 186.5,186.5 0 0 1 438.7168,337.66016 Z m 338.16406,1.54688 -96.21484,96.21484 a 186.5,186.5 0 0 1 99.39648,102.7168 l 96.94922,-96.94922 A 317,317 0 0 0 680.30859,242.63477 Z m 2.03125,338.64843 A 186.5,186.5 0 0 1 581.2832,682.33984 l 96.57227,96.57227 A 317,317 0 0 0 778.91211,677.85547 Z m -343.49023,2.81055 -96.21484,96.21484 a 317,317 0 0 0 101.98242,100.13086 l 96.94922,-96.94922 a 186.5,186.5 0 0 1 -102.7168,-99.39648 z" />
</svg>
